<svg width="80" height="80" viewBox="0 0 80 80" fill="none" xmlns="http://www.w3.org/2000/svg">
    <path d="M73.3327 30V50C73.3327 59.4267 73.3327 64.1434 70.406 67.07C67.4727 70 62.7627 70 53.3327 70H26.666C17.2393 70 12.526 70 9.59602 67.07C6.66602 64.1434 6.66602 59.4267 6.66602 50V36.8467C6.66602 33.58 6.66602 31.9467 7.04602 30.61C7.51104 28.9663 8.38938 27.4692 9.59726 26.2613C10.8052 25.0534 12.3023 24.1751 13.946 23.71C15.276 23.3334 16.9093 23.3334 20.176 23.3334C21.396 23.3334 22.006 23.3334 22.576 23.2334C23.9831 22.9882 25.2743 22.2977 26.2593 21.2634C26.656 20.8434 27.6527 19.35 28.3293 18.3334C29.6527 16.35 30.3127 15.36 31.216 14.68C31.7675 14.2634 32.3803 13.935 33.0327 13.7067C34.0993 13.3334 35.2927 13.3334 37.676 13.3334H43.3327" stroke="currentColor" stroke-width="3" stroke-linecap="round" stroke-linejoin="round"/>
    <path d="M53.3327 18.3333H69.9994M61.666 26.6667V10M53.3327 45C53.3327 48.5362 51.9279 51.9276 49.4274 54.4281C46.927 56.9286 43.5356 58.3333 39.9994 58.3333C36.4631 58.3333 33.0717 56.9286 30.5713 54.4281C28.0708 51.9276 26.666 48.5362 26.666 45C26.666 41.4638 28.0708 38.0724 30.5713 35.5719C33.0717 33.0714 36.4631 31.6667 39.9994 31.6667C43.5356 31.6667 46.927 33.0714 49.4274 35.5719C51.9279 38.0724 53.3327 41.4638 53.3327 45Z" stroke="currentColor" stroke-width="3" stroke-linecap="round" stroke-linejoin="round"/>
</svg>
