<svg width="24" height="24" viewBox="0 0 24 24" fill="none" xmlns="http://www.w3.org/2000/svg">
<path d="M2.57306 8.46298L11.2321 4.13398C11.3153 4.09243 11.407 4.0708 11.5001 4.0708C11.5931 4.0708 11.6848 4.09243 11.7681 4.13398L20.4271 8.46398C20.5266 8.51384 20.6104 8.59044 20.6689 8.68519C20.7274 8.77994 20.7584 8.88911 20.7584 9.00048C20.7584 9.11185 20.7274 9.22102 20.6689 9.31577C20.6104 9.41052 20.5266 9.48712 20.4271 9.53698L11.7681 13.866C11.6848 13.9075 11.5931 13.9292 11.5001 13.9292C11.407 13.9292 11.3153 13.9075 11.2321 13.866L2.57306 9.53598C2.47348 9.48612 2.38974 9.40952 2.33122 9.31477C2.27269 9.22002 2.2417 9.11085 2.2417 8.99948C2.2417 8.88811 2.27269 8.77894 2.33122 8.68419C2.38974 8.58944 2.47348 8.51284 2.57306 8.46298Z" stroke="#737373" stroke-width="1.5" stroke-linecap="round" stroke-linejoin="round"/>
<path d="M22.5 13V9.5L20.5 8.5M4.5 10.5V15.912C4.49993 16.2904 4.60719 16.661 4.80933 16.9809C5.01148 17.3007 5.30021 17.5567 5.642 17.719L10.642 20.093C10.9101 20.2203 11.2032 20.2864 11.5 20.2864C11.7968 20.2864 12.0899 20.2203 12.358 20.093L17.358 17.719C17.6998 17.5567 17.9885 17.3007 18.1907 16.9809C18.3928 16.661 18.5001 16.2904 18.5 15.912V10.5" stroke="#737373" stroke-width="1.5" stroke-linecap="round" stroke-linejoin="round"/>
</svg>
